<svg     
      xmlns="http://www.w3.org/2000/svg"
      width="1198.355"
      height="423"
      viewBox="0 0 1198.355 423"
    >
      <line
        id="Line_285"
        data-name="Line 285"
        y2="423"
        transform="translate(1185.855)"
        fill="none"
        stroke="#fff"
        stroke-width="0.6"
        stroke-dasharray="4 4"
      />
      <line
        id="Line_288"
        data-name="Line 288"
        y2="423"
        transform="translate(11.355 423) rotate(180)"
        fill="none"
        stroke="#fff"
        stroke-width="0.6"
        stroke-dasharray="4 4"
      />
      <line
        id="Line_287"
        data-name="Line 287"
        x2="218.5"
        transform="translate(10.855 208.5)"
        fill="none"
        stroke="#fff"
        stroke-width="0.6"
        stroke-dasharray="4 4"
      />
      <line
        id="Line_307"
        data-name="Line 307"
        x1="246.072"
        transform="translate(941.427 208.5)"
        fill="none"
        stroke="#fff"
        stroke-width="0.6"
        stroke-dasharray="4 4"
      />
      <line
        id="Line_304"
        data-name="Line 304"
        x2="218.5"
        transform="translate(10.855 316.5)"
        fill="none"
        stroke="#fff"
        stroke-width="0.6"
        stroke-dasharray="4 4"
      />
      <line
        id="Line_306"
        data-name="Line 306"
        x1="246.072"
        transform="translate(941.427 316.5)"
        fill="none"
        stroke="#fff"
        stroke-width="0.6"
        stroke-dasharray="4 4"
      />
      <line
        id="Line_305"
        data-name="Line 305"
        x2="218.5"
        transform="translate(10.855 94.291)"
        fill="none"
        stroke="#fff"
        stroke-width="0.6"
        stroke-dasharray="4 4"
      />
      <line
        id="Line_308"
        data-name="Line 308"
        x1="246.072"
        transform="translate(941.427 94.291)"
        fill="none"
        stroke="#fff"
        stroke-width="0.6"
        stroke-dasharray="4 4"
      />
      <g
        id="Group_2319"
        data-name="Group 2319"
        transform="translate(1153.679 6562.296) rotate(180)"
      >
        <g
          id="Group_2153"
          data-name="Group 2153"
          transform="translate(1134.438 6342.587)"
        >
          <g id="Group_1962" data-name="Group 1962" transform="translate(0 0)">
            <path
              id="Path_1804"
              data-name="Path 1804"
              d="M-2.986-7.336A7.886,7.886,0,0,0,4.9-15.222a7.886,7.886,0,0,0-7.886-7.886,7.886,7.886,0,0,0-7.886,7.886A7.886,7.886,0,0,0-2.986-7.336Zm0,3.332V-26.713"
              transform="translate(10.872 26.713)"
              fill="none"
              stroke="#fff"
              stroke-width="0.6"
            />
          </g>
        </g>
        <g
          id="Group_2154"
          data-name="Group 2154"
          transform="translate(1130.97 6353.941)"
        >
          <path
            id="Path_1820"
            data-name="Path 1820"
            d="M0,0H22.709"
            fill="none"
            stroke="#fff"
            stroke-width="0.6"
          />
        </g>
      </g>
      <g
        id="Group_2371"
        data-name="Group 2371"
        transform="translate(1175.646 197)"
      >
        <g
          id="Group_2153-2"
          data-name="Group 2153"
          transform="translate(3.469 0)"
        >
          <g id="Group_1962-2" data-name="Group 1962" transform="translate(0)">
            <path
              id="Path_1804-2"
              data-name="Path 1804"
              d="M7.886,3.332A7.886,7.886,0,1,1,0,11.218,7.886,7.886,0,0,1,7.886,3.332ZM7.886,0V22.709"
              fill="none"
              stroke="#fff"
              stroke-width="0.6"
            />
          </g>
        </g>
        <g
          id="Group_2154-2"
          data-name="Group 2154"
          transform="translate(0 11.355)"
        >
          <path
            id="Path_1820-2"
            data-name="Path 1820"
            d="M0,0H22.709"
            fill="none"
            stroke="#fff"
            stroke-width="0.6"
          />
        </g>
      </g>
      <g
        id="Group_2368"
        data-name="Group 2368"
        transform="translate(1153.679 6670.296) rotate(180)"
      >
        <g
          id="Group_2153-3"
          data-name="Group 2153"
          transform="translate(1134.438 6342.587)"
        >
          <g
            id="Group_1962-3"
            data-name="Group 1962"
            transform="translate(0 0)"
          >
            <path
              id="Path_1804-3"
              data-name="Path 1804"
              d="M-2.986-7.336A7.886,7.886,0,0,0,4.9-15.222a7.886,7.886,0,0,0-7.886-7.886,7.886,7.886,0,0,0-7.886,7.886A7.886,7.886,0,0,0-2.986-7.336Zm0,3.332V-26.713"
              transform="translate(10.872 26.713)"
              fill="none"
              stroke="#fff"
              stroke-width="0.6"
            />
          </g>
        </g>
        <g
          id="Group_2154-3"
          data-name="Group 2154"
          transform="translate(1130.97 6353.941)"
        >
          <path
            id="Path_1820-3"
            data-name="Path 1820"
            d="M0,0H22.709"
            fill="none"
            stroke="#fff"
            stroke-width="0.6"
          />
        </g>
      </g>
      <g
        id="Group_2370"
        data-name="Group 2370"
        transform="translate(1175.646 305)"
      >
        <g
          id="Group_2153-4"
          data-name="Group 2153"
          transform="translate(3.469 0)"
        >
          <g id="Group_1962-4" data-name="Group 1962" transform="translate(0)">
            <path
              id="Path_1804-4"
              data-name="Path 1804"
              d="M7.886,3.332A7.886,7.886,0,1,1,0,11.218,7.886,7.886,0,0,1,7.886,3.332ZM7.886,0V22.709"
              fill="none"
              stroke="#fff"
              stroke-width="0.6"
            />
          </g>
        </g>
        <g
          id="Group_2154-4"
          data-name="Group 2154"
          transform="translate(0 11.355)"
        >
          <path
            id="Path_1820-4"
            data-name="Path 1820"
            d="M0,0H22.709"
            fill="none"
            stroke="#fff"
            stroke-width="0.6"
          />
        </g>
      </g>
      <g
        id="Group_2369"
        data-name="Group 2369"
        transform="translate(1153.679 6448.087) rotate(180)"
      >
        <g
          id="Group_2153-5"
          data-name="Group 2153"
          transform="translate(1134.438 6342.587)"
        >
          <g
            id="Group_1962-5"
            data-name="Group 1962"
            transform="translate(0 0)"
          >
            <path
              id="Path_1804-5"
              data-name="Path 1804"
              d="M-2.986-7.336A7.886,7.886,0,0,0,4.9-15.222a7.886,7.886,0,0,0-7.886-7.886,7.886,7.886,0,0,0-7.886,7.886A7.886,7.886,0,0,0-2.986-7.336Zm0,3.332V-26.713"
              transform="translate(10.872 26.713)"
              fill="none"
              stroke="#fff"
              stroke-width="0.6"
            />
          </g>
        </g>
        <g
          id="Group_2154-5"
          data-name="Group 2154"
          transform="translate(1130.97 6353.941)"
        >
          <path
            id="Path_1820-5"
            data-name="Path 1820"
            d="M0,0H22.709"
            fill="none"
            stroke="#fff"
            stroke-width="0.6"
          />
        </g>
      </g>
      <g
        id="Group_2372"
        data-name="Group 2372"
        transform="translate(1175.646 82.791)"
      >
        <g
          id="Group_2153-6"
          data-name="Group 2153"
          transform="translate(3.469 0)"
        >
          <g id="Group_1962-6" data-name="Group 1962" transform="translate(0)">
            <path
              id="Path_1804-6"
              data-name="Path 1804"
              d="M7.886,3.332A7.886,7.886,0,1,1,0,11.218,7.886,7.886,0,0,1,7.886,3.332ZM7.886,0V22.709"
              fill="none"
              stroke="#fff"
              stroke-width="0.6"
            />
          </g>
        </g>
        <g
          id="Group_2154-6"
          data-name="Group 2154"
          transform="translate(0 11.355)"
        >
          <path
            id="Path_1820-6"
            data-name="Path 1820"
            d="M0,0H22.709"
            fill="none"
            stroke="#fff"
            stroke-width="0.6"
          />
        </g>
      </g>
    </svg>