<svg xmlns="http://www.w3.org/2000/svg" width="591.912" height="431.164" viewBox="0 0 591.912 431.164">
  <g id="Group_2414" data-name="Group 2414" transform="translate(0.3)">
    <path id="Path_2021" data-name="Path 2021" d="M3448.851,296.328V682.644H2871.629V443.514h557.942" transform="translate(-2865.077 -296.328)" fill="none" stroke="#fff" stroke-width="0.6"/>
    <ellipse id="Ellipse_62" data-name="Ellipse 62" cx="31.413" cy="11.28" rx="31.413" ry="11.28" transform="translate(259.213 257.063)" fill="none" stroke="#fff" stroke-width="0.6"/>
    <line id="Line_335" data-name="Line 335" y2="15.859" transform="translate(290.625 36.137)" fill="none" stroke="#fff" stroke-width="0.6"/>
    <line id="Line_336" data-name="Line 336" y2="362.637" transform="translate(290.625 68.527)" fill="none" stroke="#fff" stroke-width="0.6"/>
    <line id="Line_337" data-name="Line 337" x2="181.696" transform="translate(7.137 268.342)" fill="none" stroke="#fff" stroke-width="0.6"/>
    <line id="Line_338" data-name="Line 338" x2="168.843" transform="translate(394.483 268.342)" fill="none" stroke="#fff" stroke-width="0.6"/>
    <line id="Line_339" data-name="Line 339" x2="15.19" transform="translate(568.584 356.383)" fill="none" stroke="#fff" stroke-width="0.6"/>
    <line id="Line_340" data-name="Line 340" y2="41.481" transform="translate(59.117 130.868)" fill="none" stroke="#fff" stroke-width="0.6"/>
    <line id="Line_341" data-name="Line 341" y2="41.481" transform="translate(111.54 130.868)" fill="none" stroke="#fff" stroke-width="0.6"/>
    <line id="Line_342" data-name="Line 342" y2="41.481" transform="translate(163.963 130.868)" fill="none" stroke="#fff" stroke-width="0.6"/>
    <line id="Line_343" data-name="Line 343" y2="41.481" transform="translate(216.386 130.868)" fill="none" stroke="#fff" stroke-width="0.6"/>
    <line id="Line_344" data-name="Line 344" y2="41.481" transform="translate(268.808 130.868)" fill="none" stroke="#fff" stroke-width="0.6"/>
    <line id="Line_345" data-name="Line 345" y2="41.481" transform="translate(321.231 130.868)" fill="none" stroke="#fff" stroke-width="0.6"/>
    <line id="Line_346" data-name="Line 346" y2="41.481" transform="translate(373.654 130.868)" fill="none" stroke="#fff" stroke-width="0.6"/>
    <line id="Line_347" data-name="Line 347" y2="41.481" transform="translate(426.077 130.868)" fill="none" stroke="#fff" stroke-width="0.6"/>
    <line id="Line_348" data-name="Line 348" y2="41.481" transform="translate(478.5 130.868)" fill="none" stroke="#fff" stroke-width="0.6"/>
    <line id="Line_349" data-name="Line 349" y2="41.481" transform="translate(530.923 130.868)" fill="none" stroke="#fff" stroke-width="0.6"/>
    <ellipse id="Ellipse_63" data-name="Ellipse 63" cx="6.553" cy="2.211" rx="6.553" ry="2.211" transform="translate(0 145.2)" fill="none" stroke="#fff" stroke-width="0.6"/>
    <ellipse id="Ellipse_64" data-name="Ellipse 64" cx="6.553" cy="2.211" rx="6.553" ry="2.211" transform="translate(52.564 145.2)" fill="none" stroke="#fff" stroke-width="0.6"/>
    <ellipse id="Ellipse_65" data-name="Ellipse 65" cx="6.553" cy="2.211" rx="6.553" ry="2.211" transform="translate(105.128 145.2)" fill="none" stroke="#fff" stroke-width="0.6"/>
    <ellipse id="Ellipse_66" data-name="Ellipse 66" cx="6.553" cy="2.211" rx="6.553" ry="2.211" transform="translate(157.693 145.2)" fill="none" stroke="#fff" stroke-width="0.6"/>
    <ellipse id="Ellipse_67" data-name="Ellipse 67" cx="6.553" cy="2.211" rx="6.553" ry="2.211" transform="translate(210.257 145.2)" fill="none" stroke="#fff" stroke-width="0.6"/>
    <ellipse id="Ellipse_68" data-name="Ellipse 68" cx="6.553" cy="2.211" rx="6.553" ry="2.211" transform="translate(262.821 145.2)" fill="none" stroke="#fff" stroke-width="0.6"/>
    <ellipse id="Ellipse_69" data-name="Ellipse 69" cx="6.553" cy="2.211" rx="6.553" ry="2.211" transform="translate(315.385 145.2)" fill="none" stroke="#fff" stroke-width="0.6"/>
    <ellipse id="Ellipse_70" data-name="Ellipse 70" cx="6.553" cy="2.211" rx="6.553" ry="2.211" transform="translate(367.949 145.2)" fill="none" stroke="#fff" stroke-width="0.6"/>
    <ellipse id="Ellipse_71" data-name="Ellipse 71" cx="6.553" cy="2.211" rx="6.553" ry="2.211" transform="translate(420.514 145.2)" fill="none" stroke="#fff" stroke-width="0.6"/>
    <ellipse id="Ellipse_72" data-name="Ellipse 72" cx="6.553" cy="2.211" rx="6.553" ry="2.211" transform="translate(473.078 145.2)" fill="none" stroke="#fff" stroke-width="0.6"/>
    <ellipse id="Ellipse_73" data-name="Ellipse 73" cx="6.553" cy="2.211" rx="6.553" ry="2.211" transform="translate(525.642 145.2)" fill="none" stroke="#fff" stroke-width="0.6"/>
    <ellipse id="Ellipse_74" data-name="Ellipse 74" cx="6.553" cy="2.211" rx="6.553" ry="2.211" transform="translate(578.206 145.2)" fill="none" stroke="#fff" stroke-width="0.6"/>
  </g>
</svg>