    <svg
      class="svgJcad"
      xmlns="http://www.w3.org/2000/svg"
      width="793"
      height="265"
      viewBox="0 0 795 266"
    >
      <g transform="translate(0 104.006)">
        <g transform="translate(0 -103.506)">
          <g transform="translate(610.402 0.004)">
            <path
              d="M81.4,93.4a55.238,55.238,0,0,1-55.189,55.168h-29.3V-11.655h29.3A55.239,55.239,0,0,1,81.4,43.516ZM26.208-59.98h-78.48l.854,48.323V196.9H26.208a103.62,103.62,0,0,0,103.5-103.5V43.516a103.619,103.619,0,0,0-103.5-103.5"
              transform="translate(52.272 59.98)"
              fill="none"
              stroke="#fff"
              stroke-width=""
            />
          </g>
          <g transform="translate(169.151 0.003)">
            <path
              d="M0,63.028V112.9A103.621,103.621,0,0,0,103.507,216.4h46.939l3.514-48.32H103.507A55.249,55.249,0,0,1,48.32,112.9V63.028A55.249,55.249,0,0,1,103.507,7.844h53.115l3.511-48.32H103.507A103.62,103.62,0,0,0,0,63.028"
              transform="translate(0 40.476)"
              fill="none"
              stroke="#fff"
              stroke-width="1"
            />
          </g>
          <g transform="translate(0.001 0)">
            <path
              d="M48.836,98.15A55.249,55.249,0,0,1-6.348,153.334H-31.362l.854,48.318h24.16A103.621,103.621,0,0,0,97.159,98.15V-63.031H47.982L48.836-14.7Z"
              transform="translate(31.362 63.031)"
              fill="none"
              stroke="#fff"
              stroke-width="1"
            />
          </g>
        </g>
        <g transform="translate(355.921 -103.506)">
          <path
            d="M35.684,0l-8.17,48.328-50.43,208.55H30.265l10.213-57.572h94.076l10.185,57.572h53.187L147.565,48.517,139.352,0Zm41.7,48.328H97.649L124.5,157.013H50.534Z"
            transform="translate(22.916)"
            fill="none"
            stroke="#fff"
            stroke-width="1"
          />
        </g>
      </g>
    </svg>